#!OML:ASF X:\für Bonn\!DataBase\2005_08_12_Daniel\c3d\Daniel.ASF
:FULLY-SPECIFIED
:DEGREES
146
root -3.27233 13.2994 -1.25426 -327.343 -89.2697 308.875
lowerback 43.0571 -3.2414 4.43522
upperback 4.55975 -3.21782 -2.05001
thorax -15.7428 -1.9974 -2.92046
lowerneck 3.73025 3.40326 -1.85529
upperneck -2.08717 4.31602 -3.52176
head -1.22772 2.22029 -0.872314
rclavicle -1.78906e-015 -2.38542e-015
rhumerus 64.1846 2.30723 -105.311
rradius 5.83286
rwrist 69.938
rhand -23.151 6.41118
rfingers 7.12502
rthumb 3.29729 -23.5431
lclavicle -1.78906e-015 -2.38542e-015
lhumerus 63.0516 3.31295 98.8139
lradius 8.41358
lwrist -75.7647
lhand -17.8549 3.16923
lfingers 7.12502
lthumb 8.41034 32.9818
rfemur -36.3669 -27.1209 2.71233
rtibia 99.2567
rfoot 355.387 21.2626
rtoes -8.84529
lfemur -577.186 160.484 -183.221
ltibia 97.1688
lfoot -15.1787 -26.9783
ltoes 7.07942
147
root -3.29043 13.4681 -1.25757 -328.03 -89.3092 309.7
lowerback 42.5372 -3.20755 4.39982
upperback 4.50362 -3.1974 -2.06476
thorax -15.6429 -1.98118 -2.94392
lowerneck 3.59175 3.41801 -1.78696
upperneck -1.84825 4.34996 -3.56702
head -1.12547 2.23159 -0.890978
rclavicle 1.97791e-014 5.56597e-015
rhumerus 63.9337 2.34958 -105.195
rradius 5.96023
rwrist 69.7489
rhand -22.9366 6.37302
rfingers 7.12502
rthumb 3.50433 -23.5779
lclavicle 1.97791e-014 5.56597e-015
lhumerus 62.8156 3.37436 98.7924
lradius 8.49885
lwrist -75.6643
lhand -17.7395 3.27018
lfingers 7.12502
lthumb 8.52173 33.0782
rfemur -35.1997 -26.6186 2.9883
rtibia 97.4092
rfoot 355.329 20.9333
rtoes -8.69092
lfemur -575.905 161.073 -183.517
ltibia 95.2404
lfoot -15.3198 -26.641
ltoes 7.3412
148
root -3.30874 13.6364 -1.26083 -326.1 -89.3365 307.93
lowerback 41.9968 -3.1745 4.39679
upperback 4.44005 -3.16227 -2.0774
thorax -15.5419 -1.96018 -2.98958
lowerneck 3.42914 3.42402 -1.72971
upperneck -1.5857 4.3738 -3.59113
head -1.01284 2.23696 -0.900055
rclavicle -1.68967e-014 0
rhumerus 63.7081 2.39474 -105.093
rradius 6.0488
rwrist 69.5645
rhand -22.6878 6.31267
rfingers 7.12502
rthumb 3.74461 -23.6342
lclavicle -1.68967e-014 0
lhumerus 62.5962 3.40233 98.7758
lradius 8.52866
lwrist -75.5373
lhand -17.6479 3.36911
lfingers 7.12502
lthumb 8.61009 33.1735
rfemur -34.0681 -26.1345 3.30713
rtibia 95.5334
rfoot 355.326 20.6109
rtoes -8.50884
lfemur -574.645 161.611 -183.776
ltibia 93.2949
lfoot -15.5424 -26.3096
ltoes 7.49409
149
root -3.32579 13.8029 -1.2647 -326.553 -89.3751 308.559
lowerback 41.4866 -3.1347 4.34347
upperback 4.34529 -3.13491 -2.07434
thorax -15.4832 -1.93939 -2.98655
lowerneck 3.25865 3.44387 -1.69272
upperneck -1.29433 4.41631 -3.60713
head -0.890784 2.25097 -0.902924
rclavicle 1.64991e-014 -3.57812e-015
rhumerus 63.4852 2.46763 -104.977
rradius 6.0925
rwrist 69.3551
rhand -22.4772 6.27273
rfingers 7.12502
rthumb 3.94793 -23.6704
lclavicle 1.64991e-014 -3.57812e-015
lhumerus 62.3654 3.46294 98.7796
lradius 8.52088
lwrist -75.4084
lhand -17.6151 3.46664
lfingers 7.12502
lthumb 8.6418 33.2698
rfemur -32.96 -25.6779 3.59834
rtibia 93.6452
rfoot 355.332 20.2693
rtoes -8.20124
lfemur -573.431 162.162 -184.081
ltibia 91.3387
lfoot -15.7023 -25.9259
ltoes 7.6241
150
root -3.34242 13.9663 -1.26856 -325.808 -89.4068 307.997
lowerback 40.967 -3.09993 4.32435
upperback 4.25775 -3.10234 -2.08853
thorax -15.4117 -1.91866 -3.02326
lowerneck 3.07047 3.45325 -1.64685
upperneck -1.01297 4.44644 -3.58873
head -0.770144 2.25856 -0.896225
rclavicle 1.58034e-014 0
rhumerus 63.3005 2.50106 -104.876
rradius 6.12377
rwrist 69.2034
rhand -22.2717 6.22485
rfingers 7.12502
rthumb 4.14642 -23.7145
lclavicle 1.58034e-014 0
lhumerus 62.1474 3.48868 98.763
lradius 8.51598
lwrist -75.307
lhand -17.6006 3.58285
lfingers 7.12502
lthumb 8.65574 33.3854
rfemur -31.8667 -25.2414 3.88989
rtibia 91.7513
rfoot 355.352 19.9617
rtoes -7.93978
lfemur -572.237 162.69 -184.377
ltibia 89.3798
lfoot -15.9341 -25.52
ltoes 7.75837
151
root -3.35936 14.129 -1.27247 -324.998 -89.4233 307.393
lowerback 40.4308 -3.06756 4.30423
upperback 4.15606 -3.06907 -2.08543
thorax -15.3469 -1.89695 -3.04087
lowerneck 2.89547 3.46079 -1.60979
upperneck -0.724205 4.47253 -3.59115
head -0.64987 2.26427 -0.894697
rclavicle -1.08835e-014 -6.36111e-015
rhumerus 63.1154 2.53283 -104.755
rradius 6.13116
rwrist 69.0247
rhand -22.0934 6.23629
rfingers 7.12502
rthumb 4.31858 -23.6997
lclavicle -1.08835e-014 -6.36111e-015
lhumerus 61.9262 3.53622 98.7587
lradius 8.48616
lwrist -75.2362
lhand -17.626 3.64943
lfingers 7.12502
lthumb 8.63129 33.453
rfemur -30.7946 -24.8314 4.1965
rtibia 89.8373
rfoot 355.387 19.63
rtoes -7.70547
lfemur -571.071 163.222 -184.668
ltibia 87.414
lfoot -16.2322 -25.0904
ltoes 7.81104
